<?xml version="1.0" standalone="no"?>
<!DOCTYPE svg PUBLIC "-//W3C//DTD SVG 20010904//EN"
 "http://www.w3.org/TR/2001/REC-SVG-20010904/DTD/svg10.dtd">
<svg version="1.0" xmlns="http://www.w3.org/2000/svg"
 width="1024.000000pt" height="1024.000000pt" viewBox="0 0 1024.000000 1024.000000"
 preserveAspectRatio="xMidYMid meet">

<g transform="translate(0.000000,1024.000000) scale(0.100000,-0.100000)"
fill="#000000" stroke="none">
<path d="M5156 9263 c-1 -1 -105 -3 -232 -4 -233 -1 -393 -14 -564 -44 -419
-73 -738 -179 -1124 -372 -453 -227 -805 -479 -1151 -827 -528 -529 -869
-1090 -1100 -1809 -52 -161 -117 -411 -113 -436 1 -9 -4 -33 -11 -54 -14 -41
-8 -73 10 -61 8 4 9 3 5 -4 -4 -6 -13 -9 -21 -5 -11 3 -15 -2 -15 -18 0 -13
-3 -41 -6 -61 -6 -34 -4 -39 19 -47 17 -7 25 -17 24 -30 0 -11 -4 -18 -8 -15
-6 3 -19 -19 -19 -32 0 -3 27 -4 60 -3 l61 2 -5 31 c-3 17 -1 35 3 41 5 5 14
44 21 85 51 321 195 774 344 1084 209 438 530 882 910 1261 357 356 741 624
1180 823 624 282 1222 393 1896 352 113 -7 207 -15 210 -19 3 -3 32 -7 65 -8
181 -8 682 -152 960 -275 821 -366 1401 -857 1938 -1641 249 -363 447 -814
562 -1282 20 -82 39 -157 42 -165 3 -8 5 -23 4 -32 -1 -10 2 -18 7 -18 5 0 7
-12 4 -26 -3 -17 -1 -25 6 -20 6 4 9 -7 7 -31 -1 -21 -1 -30 2 -20 3 10 14 17
28 17 13 0 25 6 28 13 4 10 7 10 18 0 18 -17 39 -16 39 1 0 8 4 17 9 20 4 3 6
-7 4 -22 -4 -21 -2 -24 6 -12 9 12 11 9 12 -15 0 -16 3 -25 5 -19 10 23 -60
338 -118 534 -186 631 -495 1198 -909 1665 -103 117 -365 379 -464 465 -478
416 -1176 782 -1755 923 -188 46 -233 55 -381 76 -118 18 -484 42 -493 34z"/>
<path d="M4850 9074 c-19 -2 -100 -8 -180 -15 -244 -18 -564 -89 -853 -188
-282 -96 -681 -294 -917 -454 -402 -272 -805 -676 -1114 -1115 -282 -400 -446
-733 -599 -1217 -66 -206 -137 -566 -151 -765 -3 -36 -8 -74 -11 -85 -6 -16
-5 -17 4 -5 9 12 11 11 11 -7 0 -20 5 -23 40 -23 33 0 40 -3 40 -20 0 -17 7
-20 40 -20 33 0 40 -3 40 -20 0 -17 7 -20 40 -20 33 0 40 -3 40 -20 0 -19 7
-20 160 -20 153 0 160 -1 160 -20 0 -17 7 -20 40 -20 33 0 40 -3 40 -20 0 -18
7 -20 80 -20 73 0 80 -2 80 -20 0 -17 7 -20 40 -20 33 0 40 3 40 20 0 17 7 20
40 20 34 0 40 -3 40 -20 0 -20 5 -21 130 -19 72 0 133 5 136 10 3 5 0 9 -6 9
-6 0 -8 4 -5 10 3 6 1 10 -4 10 -6 0 -10 3 -10 8 3 20 -2 32 -13 26 -6 -4 -8
-3 -5 4 4 5 4 18 1 27 -6 13 -9 14 -16 3 -7 -10 -8 -8 -4 5 3 9 -3 55 -14 101
-26 108 -28 274 -6 376 21 96 72 200 136 280 29 36 73 108 98 160 57 117 147
215 276 302 82 54 94 66 117 117 17 38 44 72 79 104 l54 47 -21 72 c-65 222
-105 523 -92 681 11 131 16 159 50 257 84 242 275 417 531 484 l82 21 70 105
c296 445 770 633 1596 634 540 0 1064 -101 1395 -269 214 -108 348 -213 479
-374 132 -163 219 -415 246 -715 19 -209 -16 -565 -80 -815 l-21 -81 55 -53
c41 -41 58 -66 72 -110 10 -31 23 -57 29 -57 6 0 46 -21 89 -46 111 -65 214
-170 260 -266 20 -41 36 -82 36 -90 0 -8 12 -25 26 -39 37 -34 107 -135 133
-193 33 -72 58 -178 66 -286 4 -52 9 -103 10 -113 2 -9 -1 -15 -6 -11 -5 3 -9
-12 -9 -33 0 -52 -22 -147 -49 -211 -11 -29 -17 -51 -11 -47 5 3 10 13 10 21
0 10 12 14 45 14 38 0 45 -3 45 -20 0 -11 5 -20 10 -20 6 0 10 9 10 20 0 17 7
20 40 20 33 0 40 -3 40 -20 0 -19 7 -20 140 -20 133 0 140 1 140 20 0 19 7 20
140 20 133 0 140 -1 140 -20 0 -17 7 -20 40 -20 33 0 40 3 40 20 0 17 7 20 40
20 33 0 40 -3 40 -20 0 -19 7 -20 120 -20 113 0 120 1 120 20 0 11 6 20 14 20
9 0 12 8 8 26 -2 14 0 35 6 47 49 102 -15 523 -149 972 -161 545 -405 992
-825 1512 -119 147 -431 456 -585 578 -386 308 -871 573 -1332 726 -225 74
-495 136 -697 159 -97 10 -566 22 -630 14z"/>
<path d="M4745 8644 c-561 -64 -915 -265 -1091 -620 l-45 -90 -82 -12 c-296
-40 -497 -249 -546 -568 -10 -66 -9 -107 5 -264 10 -116 62 -353 115 -532 11
-37 18 -72 14 -78 -3 -5 -18 -10 -33 -10 -63 0 -121 -64 -140 -155 -18 -87
-27 -356 -27 -815 1 -474 9 -608 51 -860 36 -213 68 -300 126 -342 30 -21 46
-23 196 -28 142 -4 162 -3 158 10 -3 8 -14 41 -26 73 -117 326 -144 1339 -55
2037 62 483 321 828 715 952 64 19 96 23 210 23 125 -1 142 -3 227 -33 143
-49 277 -120 470 -249 l81 -55 54 39 c189 137 428 253 593 288 311 66 670
-111 858 -423 59 -97 121 -239 147 -335 33 -124 63 -375 78 -652 9 -181 9
-892 0 -1015 -21 -268 -51 -476 -81 -566 -13 -38 -25 -75 -28 -82 -3 -11 27
-13 150 -12 193 1 222 14 261 116 38 102 80 362 95 584 3 47 8 95 11 108 9 45
5 750 -6 937 -11 192 -31 328 -56 377 -19 36 -59 66 -100 74 -19 3 -34 12 -34
19 0 6 18 81 39 166 67 262 84 387 85 609 1 225 -4 286 -39 426 -43 180 -124
330 -247 460 -326 345 -906 517 -1733 513 -139 -1 -303 -7 -370 -15z m-125
-172 c0 -5 -26 -16 -57 -26 -87 -28 -268 -121 -357 -184 -97 -71 -208 -187
-264 -278 -23 -38 -42 -65 -42 -60 0 27 46 159 72 206 126 226 325 342 596
349 28 0 52 -3 52 -7z m577 -48 c-3 -3 -12 -4 -19 -1 -8 3 -5 6 6 6 11 1 17
-2 13 -5z m-57 -11 c-14 -3 -94 -22 -179 -44 -294 -75 -526 -215 -676 -409
-83 -108 -146 -249 -161 -361 -4 -27 -10 -52 -15 -54 -17 -11 -31 67 -24 133
24 230 168 421 423 566 123 69 356 147 495 165 65 9 181 12 137 4z m585 -142
l60 -7 -40 -8 c-302 -58 -613 -235 -773 -439 -49 -62 -134 -211 -126 -220 3
-2 -7 -2 -21 0 -20 4 -25 1 -25 -16 0 -18 -6 -21 -40 -21 -34 0 -40 3 -42 23
-2 36 2 66 14 95 6 15 11 30 10 35 -1 4 2 7 6 7 5 0 9 7 9 15 0 26 46 115 56
108 6 -3 7 -1 3 6 -15 24 74 138 178 229 179 157 442 226 731 193z m320 -91
c4 -6 3 -10 -2 -9 -4 1 -10 1 -13 -1 -3 -1 -16 -4 -30 -6 -53 -10 -239 -67
-310 -95 -102 -41 -229 -110 -323 -176 -43 -30 -83 -53 -89 -51 -29 10 187
162 313 220 111 52 296 105 392 113 21 2 41 6 45 9 7 8 10 8 17 -4z m-2668
-601 c63 -26 173 -106 173 -124 0 -1 -49 1 -109 3 -86 3 -120 1 -162 -13 -95
-32 -154 -79 -204 -165 l-26 -45 7 45 c13 90 77 221 136 277 57 55 97 60 185
22z m1450 -35 c-3 -3 -12 -4 -19 -1 -8 3 -5 6 6 6 11 1 17 -2 13 -5z m-120
-56 c-3 -7 -5 -2 -5 12 0 14 2 19 5 13 2 -7 2 -19 0 -25z m2355 -1133 c29 -12
41 -85 53 -317 l4 -78 -40 0 c-32 0 -39 3 -39 20 0 17 -7 20 -44 20 -57 0 -83
9 -64 22 10 7 10 11 1 15 -7 2 -13 13 -13 24 0 10 -6 19 -14 19 -12 0 -24 16
-31 40 0 3 -5 51 -9 107 -11 143 -8 147 98 140 44 -3 89 -8 98 -12z m-3988
-11 c3 -8 2 -13 -3 -9 -21 12 -45 -266 -57 -660 -3 -110 -7 -218 -9 -240 -2
-22 -4 -76 -5 -120 -1 -65 -3 -75 -12 -55 -14 35 -3 746 15 927 8 80 20 149
27 158 16 19 36 19 44 -1z"/>
<path d="M4015 6216 c-178 -41 -305 -131 -386 -271 -33 -58 -37 -105 -11 -128
32 -29 58 -20 112 37 97 102 241 156 418 157 104 0 171 -12 256 -46 79 -32
107 -31 145 1 25 21 31 34 31 65 0 70 -86 138 -221 175 -80 21 -271 27 -344
10z"/>
<path d="M5835 6220 c-130 -24 -252 -87 -279 -144 -9 -19 -16 -39 -16 -46 0
-26 31 -68 59 -80 27 -11 41 -9 123 20 80 28 110 33 218 37 93 4 142 1 193
-11 115 -27 220 -90 268 -161 28 -41 67 -47 99 -15 27 27 25 46 -10 117 -89
177 -266 279 -500 288 -58 2 -127 0 -155 -5z"/>
<path d="M7614 5815 c20 -54 28 -227 24 -538 l-3 -339 32 39 c144 170 175 460
73 668 -30 59 -140 209 -126 170z"/>
<path d="M2446 5753 c-146 -199 -170 -442 -65 -658 27 -56 98 -161 103 -153 1
1 -1 46 -5 98 -10 132 -10 644 1 705 4 28 6 52 5 53 -2 2 -19 -18 -39 -45z"/>
<path d="M4071 5736 c-101 -33 -201 -132 -231 -230 -19 -60 -8 -191 21 -251
49 -104 166 -188 282 -200 138 -16 286 74 350 212 33 74 32 208 -4 284 -56
119 -164 190 -299 196 -46 2 -92 -3 -119 -11z m28 -171 c80 -41 57 -170 -34
-189 -38 -8 -91 23 -106 62 -16 41 5 98 44 122 38 24 59 25 96 5z"/>
<path d="M5831 5731 c-57 -22 -68 -29 -120 -75 -66 -61 -111 -164 -111 -257 0
-191 198 -368 384 -344 118 15 223 92 272 198 25 54 29 74 29 152 0 76 -4 99
-26 146 -56 119 -164 190 -299 196 -57 3 -88 -1 -129 -16z m38 -165 c72 -38
63 -149 -15 -182 -29 -12 -39 -12 -66 -1 -62 26 -81 78 -51 137 29 55 79 73
132 46z"/>
<path d="M822 5490 c-1 -17 2 -30 7 -30 5 0 8 11 7 25 -4 36 -11 39 -14 5z"/>
<path d="M9281 5485 c1 -19 18 -51 18 -35 0 8 -4 22 -9 30 -5 8 -9 11 -9 5z"/>
<path d="M819 5438 c-1 -2 -3 -16 -4 -33 -1 -16 -4 -46 -7 -65 -3 -19 -3 -27
-1 -17 2 9 9 15 14 12 10 -7 10 -6 14 43 1 17 -2 32 -7 32 -6 0 -8 7 -4 15 4
12 0 23 -5 13z"/>
<path d="M9307 5309 c4 -13 8 -18 11 -10 2 7 -1 18 -6 23 -8 8 -9 4 -5 -13z"/>
<path d="M7503 5313 c-40 -3 -63 -8 -64 -16 -1 -7 -3 -43 -5 -82 -21 -424 -28
-513 -39 -563 l-13 -57 57 61 c66 69 98 132 117 224 32 155 46 442 22 438 -7
-1 -41 -3 -75 -5z"/>
<path d="M2539 5206 c-12 -9 -14 -31 -8 -130 11 -169 31 -251 80 -322 46 -65
124 -148 116 -122 -3 9 -10 43 -16 75 -9 56 -13 111 -27 384 l-6 127 -62 0
c-34 0 -69 -6 -77 -12z"/>
<path d="M9090 5123 c-3 -23 -2 -39 3 -34 5 5 7 24 5 42 -3 33 -4 33 -8 -8z"/>
<path d="M782 5120 c0 -14 2 -19 5 -12 2 6 2 18 0 25 -3 6 -5 1 -5 -13z"/>
<path d="M9323 5080 c0 -25 2 -35 4 -22 2 12 2 32 0 45 -2 12 -4 2 -4 -23z"/>
<path d="M1010 5061 c0 -11 4 -22 9 -25 4 -3 6 6 3 19 -5 30 -12 33 -12 6z"/>
<path d="M2293 4926 c6 -13 20 -29 30 -36 14 -8 12 -1 -8 24 -32 42 -37 45
-22 12z"/>
<path d="M2360 4824 c0 -8 5 -12 10 -9 6 4 8 11 5 16 -9 14 -15 11 -15 -7z"/>
<path d="M7780 4816 c0 -8 4 -17 9 -20 5 -4 7 3 4 14 -6 23 -13 26 -13 6z"/>
<path d="M2420 4750 c0 -5 5 -10 11 -10 5 0 7 5 4 10 -3 6 -8 10 -11 10 -2 0
-4 -4 -4 -10z"/>
<path d="M7371 4407 c-8 -10 -7 -14 4 -14 8 0 15 6 15 14 0 7 -2 13 -4 13 -2
0 -9 -6 -15 -13z"/>
<path d="M4450 4230 c-24 -24 -26 -57 -3 -90 179 -265 427 -388 708 -351 174
24 283 80 425 221 100 100 136 155 126 196 -11 44 -40 49 -120 20 -148 -53
-344 -86 -506 -86 -193 0 -430 39 -541 90 -55 25 -64 25 -89 0z m1026 -169
c-71 -74 -201 -141 -313 -162 -70 -14 -192 -6 -270 17 -87 25 -269 141 -251
159 4 4 49 1 100 -7 180 -26 608 -14 757 21 3 1 -8 -12 -23 -28z"/>
<path d="M6522 3685 c-147 -12 -154 -13 -183 -41 -79 -75 -84 -181 -11 -245
35 -31 35 -31 121 -25 144 11 285 32 309 45 38 20 56 81 53 173 -2 41 -70 108
-107 107 -16 -1 -98 -7 -182 -14z m1 -86 c24 -33 25 -98 1 -133 -25 -39 -33
-31 -27 27 3 31 1 62 -5 74 -10 18 -17 19 -62 12 -27 -4 -54 -11 -60 -14 -17
-10 -11 11 8 28 26 24 72 33 83 16 7 -11 9 -10 9 4 0 26 28 18 53 -14z"/>
<path d="M5885 3173 c-196 -133 -463 -229 -705 -251 -117 -10 -308 2 -413 28
-182 44 -368 122 -497 210 l-60 41 0 -85 0 -84 49 -44 c27 -24 77 -59 112 -77
35 -19 64 -34 65 -35 1 -1 4 -13 8 -28 5 -23 3 -28 -12 -28 -29 0 -154 64
-189 98 l-33 30 0 -38 c0 -21 -3 -50 -6 -66 -4 -23 1 -35 26 -61 28 -28 206
-130 221 -126 3 1 6 -12 5 -28 -1 -28 -3 -30 -30 -25 -42 9 -134 52 -173 82
-45 34 -48 34 -45 -8 3 -27 -1 -38 -10 -38 -33 0 188 -153 312 -215 86 -43
207 -95 221 -95 7 0 6 11 -7 90 -3 19 -8 47 -9 62 -2 15 -8 53 -14 85 -6 32
-13 102 -17 157 l-7 98 32 -16 c20 -11 31 -24 31 -39 1 -12 7 -74 15 -137 7
-63 19 -163 26 -222 l12 -107 100 -36 c187 -67 192 -66 436 31 252 101 444
201 569 296 l52 41 0 262 c-1 144 -4 274 -8 287 l-7 25 -50 -34z m-1058 -529
c-3 -3 -15 -2 -28 1 -19 5 -24 13 -24 36 l0 30 28 -31 c16 -18 26 -34 24 -36z
m73 -189 c8 -2 21 -4 28 -4 9 -1 8 -8 -5 -27 -15 -24 -21 -26 -62 -20 -45 6
-71 26 -71 54 0 13 34 12 110 -3z"/>
<path d="M6487 2321 c11 -51 11 -82 3 -133 -5 -37 -10 -113 -10 -170 -1 -337
-60 -669 -194 -1083 -30 -93 -58 -178 -61 -187 -17 -42 444 143 742 297 218
113 233 124 227 155 -51 229 -299 955 -356 1042 -12 18 -42 32 -121 56 -57 17
-136 45 -174 60 l-70 29 14 -66z"/>
<path d="M3622 2216 c-7 -33 -12 -131 -12 -218 0 -151 -1 -158 -20 -158 -13 0
-20 -7 -20 -20 0 -17 -7 -20 -45 -20 -38 0 -45 -3 -45 -20 0 -17 -7 -20 -40
-20 -33 0 -40 -3 -40 -20 0 -13 -7 -20 -20 -20 -13 0 -20 7 -20 20 0 13 -7 20
-20 20 -13 0 -20 -7 -20 -20 0 -13 -7 -20 -20 -20 -13 0 -20 -7 -20 -20 0 -17
-7 -20 -40 -20 l-40 0 0 -40 c0 -33 -3 -40 -20 -40 -13 0 -20 7 -20 20 0 11
-5 20 -11 20 -16 0 -39 -26 -39 -44 0 -9 -7 -16 -15 -16 -8 0 -15 -4 -15 -10
0 -5 -5 -10 -12 -10 -9 0 -9 3 0 12 14 14 16 28 3 28 -17 0 -20 -43 -4 -55 13
-10 13 -14 3 -20 -9 -5 -11 -4 -6 3 4 7 1 12 -7 12 -8 0 -17 -10 -20 -22 -3
-13 -28 -97 -56 -187 -28 -90 -49 -167 -46 -171 9 -14 232 -135 370 -200 182
-87 325 -144 473 -191 70 -22 132 -42 139 -44 9 -3 10 2 1 23 -23 59 -91 284
-123 407 -71 277 -102 482 -115 760 -5 119 -15 222 -27 275 l-19 85 -12 -59z
m-15 -488 c-3 -8 -6 -5 -6 6 -1 11 2 17 5 13 3 -3 4 -12 1 -19z"/>
<path d="M6903 2229 c96 -224 203 -530 292 -834 26 -88 48 -166 51 -173 5 -18
39 2 220 128 151 105 362 276 467 378 l67 67 -46 22 c-194 94 -564 246 -839
346 -99 36 -189 69 -199 73 -15 6 -18 4 -13 -7z"/>
<path d="M4883 2049 c-40 -12 -90 -69 -197 -225 -85 -125 -86 -126 -71 -155 9
-16 18 -29 20 -29 3 0 23 20 46 45 23 25 48 45 56 45 8 0 12 4 9 8 -3 5 17 26
45 47 27 22 49 43 49 47 0 13 42 31 49 20 4 -6 11 -4 19 4 10 11 10 14 0 14
-7 0 5 16 27 35 22 19 46 35 53 35 6 0 12 4 12 8 0 5 19 19 43 31 45 23 132
27 144 8 3 -6 1 -7 -5 -3 -7 4 -12 1 -12 -8 0 -8 -9 -18 -20 -21 -11 -4 -18
-10 -15 -15 3 -4 -2 -13 -10 -20 -8 -7 -15 -10 -15 -7 0 3 -10 -4 -23 -16 -21
-21 -73 -64 -124 -105 -12 -9 -46 -38 -75 -64 -49 -44 -67 -54 -93 -48 -5 1
-7 -2 -3 -6 10 -9 -12 -35 -23 -28 -5 3 -9 -2 -9 -10 0 -9 -3 -16 -8 -16 -4 0
-23 -14 -41 -31 -37 -33 -36 -42 14 -103 l23 -29 29 18 c15 10 37 28 48 40 11
12 45 41 75 66 30 24 64 52 75 62 10 10 26 15 34 12 9 -3 12 -3 8 1 -9 9 22
44 38 44 7 0 24 11 39 25 l26 24 0 -24 c0 -18 5 -25 19 -25 11 0 22 4 26 10 3
5 12 7 21 3 18 -7 -26 -49 -135 -133 -18 -14 -52 -40 -74 -59 -23 -18 -55 -40
-72 -47 -25 -11 -119 -29 -135 -27 -3 1 -5 -31 -5 -70 0 -40 -3 -99 -7 -133
l-7 -61 43 44 c37 37 49 43 85 43 22 0 41 -4 41 -10 0 -5 10 -10 23 -11 l22 0
-22 -9 c-13 -5 -23 -12 -23 -15 0 -4 5 -3 10 0 6 3 10 2 10 -3 0 -15 -118
-111 -209 -169 -4 -3 -40 -216 -37 -220 1 -1 17 13 36 31 53 49 211 168 217
162 3 -3 13 2 22 11 15 15 16 14 21 -13 4 -20 11 -28 23 -26 27 5 9 -28 -42
-74 -25 -23 -104 -91 -176 -151 -117 -99 -131 -113 -136 -149 -4 -21 -5 -41
-4 -42 2 -2 30 -6 62 -9 64 -5 66 -4 166 89 28 26 55 44 61 41 5 -3 6 -1 3 4
-7 10 20 28 35 25 5 -1 7 2 5 7 -1 5 18 25 43 44 46 38 70 36 70 -4 0 -19 10
-23 40 -20 9 2 3 -10 -15 -27 -21 -21 -34 -27 -42 -20 -10 8 -13 5 -13 -9 0
-18 -61 -78 -129 -126 -25 -18 -22 -19 179 -12 204 6 352 14 359 21 1 1 -2 33
-8 71 -27 162 -83 567 -93 670 l-11 111 51 60 c56 65 122 167 122 190 0 20
-156 246 -210 304 -32 35 -56 52 -85 58 -51 12 -320 11 -362 -1z m317 -554 c0
-8 -6 -15 -12 -15 -9 0 -8 -4 2 -10 11 -7 7 -10 -17 -10 -18 0 -33 5 -33 10 0
6 7 10 15 10 9 0 18 7 21 15 4 8 10 15 15 15 5 0 9 -7 9 -15z"/>
<path d="M5038 1963 c7 -3 16 -2 19 1 4 3 -2 6 -13 5 -11 0 -14 -3 -6 -6z"/>
<path d="M3151 1804 c0 -11 3 -14 6 -6 3 7 2 16 -1 19 -3 4 -6 -2 -5 -13z"/>
<path d="M5165 1699 c-4 -6 -5 -12 -2 -15 2 -3 7 2 10 11 7 17 1 20 -8 4z"/>
<path d="M3096 1674 c-9 -8 -16 -21 -15 -27 0 -9 2 -8 6 1 2 6 11 12 19 12 8
0 14 7 14 15 0 19 -5 19 -24 -1z"/>
<path d="M2982 1591 c-16 -17 -22 -20 -18 -8 4 13 0 17 -19 17 -18 0 -25 -5
-25 -20 0 -19 -7 -20 -100 -20 -93 0 -100 -1 -100 -20 0 -13 -7 -20 -20 -20
-13 0 -20 -7 -20 -20 0 -17 -7 -20 -40 -20 -32 0 -40 -4 -40 -18 0 -11 -8 -26
-17 -35 -15 -12 -20 -13 -30 -2 -10 11 -10 15 0 18 8 4 8 6 -2 6 -10 1 -11 4
-2 15 9 11 6 15 -14 18 -45 9 -48 -16 -6 -50 21 -17 44 -33 51 -34 6 -2 24
-14 39 -28 15 -14 79 -60 141 -103 81 -54 116 -74 121 -65 9 16 101 327 104
348 0 8 7 26 14 38 18 33 10 34 -17 3z m-352 -201 c0 -5 -4 -10 -10 -10 -5 0
-10 5 -10 10 0 6 5 10 10 10 6 0 10 -4 10 -10z"/>
<path d="M2466 1504 c18 -15 18 -15 0 -10 -16 6 -17 4 -6 -9 9 -11 16 -13 23
-6 11 11 -8 41 -26 41 -6 0 -2 -7 9 -16z"/>
</g>
</svg>
